# xmcd CD database file
#
# Track frame offsets:
#	150
#	11898
#	21669
#	33291
#	46608
#	58848
#	69651
#	82461
#	92529
#	112212
#	122340
#	135201
#	147060
#	156978
#	169356
#	182970
#	194628
#	206373
#	215793
#	227559
#
# Disc length: 3219 seconds
#
# Revision: 1
# Processed by: cddbd v1.5.2PL0 Copyright (c) Steve Scherf et al.
# Submitted via: CDex 1.51
#
DISCID=2a0c9114
DTITLE=THE BEST COUNTRY MUSIC - CD03- THE BEST COUNTRY MUSIC
DYEAR=2014
DGENRE=Country
TTITLE0=RING OF FIRE (J.CARTER-KILGORE) - JOHNNY CASH
TTITLE1=I WANNA PLAY HOUSE WITH YOU (CY COBEN) - EDDY ARNOLD
TTITLE2=COUNTRY GIRL (DRUSKY) - FARON YOUNG
TTITLE3=MY SPECIAL ANGEL (JIMMY DUNCAN) - BOBBY HELMS
TTITLE4=CRAZY (W.NELSON) - PATSY CLINE
TTITLE5=TOGETHER AGAIN (B. OWENS) - BUCK OWENS
TTITLE6=NEXT IN LINE (WOOD) - CONVAY TWITTY
TTITLE7=SIX DAYS ON THE ROAD (GREEN-MONTGOMERY) - DAVE DUDLEY
TTITLE8=EL PASO (ROBBINS) - MARTY ROBBINS
TTITLE9=SLIPPIN' AROUND (TILLMAN) - FLOYD TILLMAN
TTITLE10=DISTANT DRUMS (C.WALKER) - JIM REEVES
TTITLE11=COLD COLD HEART (H.WILLIAMS) - GEORGE JONES
TTITLE12=PLEASE HELP ME I'M FALLIN' (ROBERTSON-BLAIR) - HANK LOCKLIN
TTITLE13=I'M MOVING ON (HANK SNOW) - HANK SNOW
TTITLE14=BIG BAD JOHN (JIMMY DEAN) - JIMMY DEAN
TTITLE15=I FORGOT MORE THAN YOU'LL EB¡VER KNOW (CECIL NULL) - THE DAVID SISTERS
TTITLE16=SIXTEEN TONS (MERLE TRAVIS) - TENNESSEE ERNIE FORD
TTITLE17=IN THE JAILHOUSE NOW (J.RODGERS) - WEBB PIERCE
TTITLE18=HEARTBREAK USA (HARLAN HOWARD) - KITTY WELLS
TTITLE19=ALWAYS LATE (WITH YOUR KISSES) (FRIZZELL-CRAWFORD) - LEFTY FRIZZELL
EXTD=YEAR: 2014
EXTT0=
EXTT1=
EXTT2=
EXTT3=
EXTT4=
EXTT5=
EXTT6=
EXTT7=
EXTT8=
EXTT9=
EXTT10=
EXTT11=
EXTT12=
EXTT13=
EXTT14=
EXTT15=
EXTT16=
EXTT17=
EXTT18=
EXTT19=
PLAYORDER=
